<?xml version="1.0" encoding="iso-8859-1"?>
<!-- Generator: Adobe Illustrator 19.0.0, SVG Export Plug-In . SVG Version: 6.00 Build 0)  -->
<svg version="1.1" id="Layer_1" xmlns="http://www.w3.org/2000/svg" xmlns:xlink="http://www.w3.org/1999/xlink" x="0px" y="0px"
	 viewBox="0 0 512 512" style="enable-background:new 0 0 512 512;" xml:space="preserve">
<g>
	<path style="fill:#211E48;" d="M406.865,508.082c-8.049,0-14.576-6.526-14.576-14.576c0-8.051,6.527-14.576,14.576-14.576
		c0.178,0,11.084,0,11.606-0.001c35.477-0.242,64.376-29.338,64.376-64.863V192.521c0-2.809-2.261-5.143-5.057-5.242
		c-1.552-0.001-14.645-0.003-14.766-0.003c-8.049,0-14.576-6.526-14.576-14.576s6.527-14.576,14.576-14.576
		c2.482,0,14.887,0,15.206,0.006C496.867,158.486,512,173.913,512,192.521v221.543c0,51.49-41.887,93.665-93.375,94.016
		C418.458,508.08,407.047,508.082,406.865,508.082z"/>
	<path style="fill:#211E48;" d="M407.128,508.082H60.824C27.285,508.082,0,480.798,0,447.259V64.741
		C0,31.202,27.285,3.918,60.824,3.918h300.057c33.539,0,60.824,27.285,60.824,60.824v428.765
		C421.704,501.556,415.177,508.082,407.128,508.082z M60.824,33.071c-17.464,0-31.671,14.208-31.671,31.67v382.518
		c0,17.462,14.208,31.671,31.671,31.671h331.727V64.741c0-17.462-14.208-31.671-31.671-31.671H60.824V33.071z"/>
</g>
<path style="fill:#B0DACC;" d="M321.238,187.794h-215.73c-12.881,0-23.322-10.441-23.322-23.322v-51.02
	c0-12.881,10.441-23.322,23.322-23.322h215.73c12.881,0,23.322,10.441,23.322,23.322v51.02
	C344.56,177.353,334.119,187.794,321.238,187.794z"/>
<path style="fill:#211E48;" d="M321.239,202.371h-215.73c-20.898,0-37.898-17.002-37.898-37.899v-51.02
	c0-20.897,17-37.898,37.898-37.898h215.73c20.898,0,37.898,17.002,37.898,37.898v51.02
	C359.138,185.37,342.137,202.371,321.239,202.371z M105.509,104.706c-4.823,0-8.746,3.923-8.746,8.746v51.02
	c0,4.823,3.922,8.746,8.746,8.746h215.73c4.823,0,8.746-3.923,8.746-8.746v-51.02c0-4.823-3.922-8.746-8.746-8.746H105.509z"/>
<path style="fill:#B0DACC;" d="M164.602,421.87h-59.093c-12.881,0-23.322-10.441-23.322-23.322v-52.472
	c0-12.881,10.441-23.322,23.322-23.322h59.093c12.881,0,23.322,10.441,23.322,23.322v52.472
	C187.924,411.428,177.482,421.87,164.602,421.87z"/>
<path style="fill:#211E48;" d="M164.602,436.446h-59.093c-20.897,0-37.898-17.002-37.898-37.898v-52.472
	c0-20.897,17.002-37.898,37.898-37.898h59.093c20.898,0,37.899,17.002,37.899,37.898v52.472
	C202.5,419.445,185.5,436.446,164.602,436.446z M105.509,337.33c-4.823,0-8.746,3.922-8.746,8.746v52.472
	c0,4.823,3.922,8.746,8.746,8.746h59.093c4.823,0,8.746-3.923,8.746-8.746v-52.472c0-4.823-3.922-8.746-8.746-8.746L105.509,337.33
	L105.509,337.33z"/>
<path style="fill:#B0DACC;" d="M321.238,421.87h-59.092c-12.881,0-23.322-10.441-23.322-23.322v-52.472
	c0-12.881,10.441-23.322,23.322-23.322h59.092c12.881,0,23.322,10.441,23.322,23.322v52.472
	C344.56,411.428,334.119,421.87,321.238,421.87z"/>
<g>
	<path style="fill:#211E48;" d="M321.239,436.446h-59.093c-20.898,0-37.899-17.002-37.899-37.898v-52.472
		c0-20.897,17-37.898,37.899-37.898h59.093c20.897,0,37.898,17.002,37.898,37.898v52.472
		C359.138,419.445,342.136,436.446,321.239,436.446z M262.147,337.33c-4.823,0-8.746,3.922-8.746,8.746v52.472
		c0,4.823,3.922,8.746,8.746,8.746h59.093c4.823,0,8.746-3.923,8.746-8.746v-52.472c0-4.823-3.922-8.746-8.746-8.746L262.147,337.33
		L262.147,337.33z"/>
	<path style="fill:#211E48;" d="M337.272,270.149H85.89c-8.049,0-14.576-6.526-14.576-14.576s6.527-14.576,14.576-14.576h251.382
		c8.049,0,14.576,6.526,14.576,14.576S345.321,270.149,337.272,270.149z"/>
</g>
<g>
</g>
<g>
</g>
<g>
</g>
<g>
</g>
<g>
</g>
<g>
</g>
<g>
</g>
<g>
</g>
<g>
</g>
<g>
</g>
<g>
</g>
<g>
</g>
<g>
</g>
<g>
</g>
<g>
</g>
</svg>
